# xmcd CD database file
# Copyright (C) 1995-1998 Ti Kan
#
# Track frame offsets:
#	151
#	17635
#	28128
#	47123
#	60856
#	83549
#	97341
#	112530
#	138183
#	157275
#
# Disc length: 2319 seconds
#
# Revision: 3
# Processed by: cddbd v1.4b41PL2 Copyright (c) Steve Scherf et al.
# Submitted via: CDex 1.40Beta1
#
DISCID=75090d0a
DTITLE=Fourth Quartet - How The Swiss Wrestle
DYEAR=1900
DGENRE=Blues
TTITLE0=A Blank Document
TTITLE1=Here´s To Hoping You Make it
TTITLE2=Films Without Horses
TTITLE3=That Is Thunder
TTITLE4=Spread
TTITLE5=I Say Rifle
TTITLE6=Border Crossing
TTITLE7=Chalk Circle
TTITLE8=They Built Ships That Sank
TTITLE9=Never Appear As Narrative
EXTD=ID3G:   0
EXTT0=
EXTT1=
EXTT2=
EXTT3=
EXTT4=
EXTT5=
EXTT6=
EXTT7=
EXTT8=
EXTT9=
PLAYORDER=
